<svg xmlns="http://www.w3.org/2000/svg" viewBox="0 0 1603.12 718.02"><title>trazoTitulo</title><g id="Capa_2" data-name="Capa 2"><g id="Capa_1-2" data-name="Capa 1"><path d="M162.53,323.71q-9.89,21.35-22,46.41t-22,48.82a374.86,374.86,0,0,0-15.39,43.54q-5.5,19.78-2,30.35,4,13.19,11.65,18a28.69,28.69,0,0,0,15.4,4.84A22.86,22.86,0,0,0,141.42,512q5.51-3.73,5.5-7.7-.88-13.18,5.72-30.34a352,352,0,0,1,16.71-36.51q10.11-19.35,21.77-40t21.55-41.13a280.37,280.37,0,0,0,15.84-39.8q5.93-19.35,4.18-36.07-.88-8.79-5.72-13.63a25,25,0,0,0-11.44-6.6,43.42,43.42,0,0,0-13.85-1.32,64.79,64.79,0,0,0-13,2,24.63,24.63,0,0,0-8.79,4c-2.06,1.61-2.35,3-.88,4.18q3.51,3.53-1.54,18.47A373.93,373.93,0,0,1,162.53,323.71Z"/><path d="M1560,551.2c-26.28-1.92-41.27,18.5-42.43,35.61-1.47,21.86,13.35,40,35.6,42.92,1.1.14,2.19.32,3.31.49-4.3,16.9-24.88,33.52-41.64,35.43-61.51,7-97.13-50.27-89.41-99.17,1.36-8.59,2.7-17.19,4.08-26,17.09,0,33.82,1.61,50.13-.33,36.85-4.36,66.38-23.55,89.14-51.85,41.2-51.26,44.91-115.66,13.46-173.54-19.61-36.07-46.76-65.17-79.12-89.21-15.62-11.59-19.67-23.24-16.95-42.26,4.91-34.28,7.53-69.17-2.07-103.36-6.11-21.78-14.32-42.84-27.76-61.3-9-12.41-20.23-22.7-37-17-7.24,2.47-14.3,8.13-19.27,14.13-15.78,19-21.86,42.29-25.9,66.15-6.58,38.77,2.89,73.88,24.53,106.08,15.64,23.28,33.2,45,55.46,62.36,4.61,3.61,6.32,7.41,5.28,13.67-2.54,15.28-4,30.74-5.92,46.69-10,0-19.77-.74-29.41.12-46.52,4.15-80,32.89-91,75.43-1.46,3.16-3.19,6.65-5.22,10.48q-6.17,11.65-14.07,24.41t-16.93,25.73q-9,13-17.38,23.31a149.9,149.9,0,0,1-15.39,16.71q-7,6.39-11,6.38c-5.87,0-9-2.12-9.45-6.38s.66-9.9,3.29-16.93a251,251,0,0,1,11.22-24.85q7.26-14.3,14.52-30.13t13-32.33a117.39,117.39,0,0,0,6.6-31.45q3.08-24.18-5.28-39.36t-25.51-15.18q-9.67,0-19.79,6.16A112.11,112.11,0,0,0,1221,319.54,205.9,205.9,0,0,0,1200.33,344q-10.12,13.85-19.79,28.8a82.75,82.75,0,0,0,2.64-11.21q.87-5.49,1.76-10.78,3.07-24.18-5.28-39.58t-25.51-15q-14.09.45-29.47,12.54A191.19,191.19,0,0,0,1095.21,338q2.2-11.88-.44-19.79-4-13.2-13.19-17.6a38.12,38.12,0,0,0-18.25-4q-9,.45-15,4t-2.86,6.16q3.52,3.53,0,15.83a243.71,243.71,0,0,1-11,29.47q-4.63,10.62-9.93,22.49a7.75,7.75,0,0,0-1.95,3,141.74,141.74,0,0,1-8.79,18.92q-6.17,11.43-13.86,24.19t-16.71,25.51q-9,12.75-17.37,23.09a170.75,170.75,0,0,1-15.4,16.93q-7,6.6-11,7-10.12.89-9-8.14t8.36-24.19q7.25-15.17,18-34.53t20.23-39.14a250.08,250.08,0,0,0,14.74-38q5.26-18.24,1.31-31-3.95-13.2-13.41-17.6a38.84,38.84,0,0,0-18.25-4,31.83,31.83,0,0,0-14.74,4q-5.92,3.53-2.86,6.16c1.77,1.76,2.2,5.06,1.32,9.9A101.82,101.82,0,0,1,940,334.27q-4,10.34-9.9,23.31T918,385.07q-5.72,11-12.09,24T892.67,435q-6.82,13-14.07,24.85a183.25,183.25,0,0,1-14.07,20.23q-6.82,8.37-13.64,12.32t-13,1.32q-7.92-3.07-11-13.2A72.6,72.6,0,0,1,824.28,457a131.6,131.6,0,0,1,4.18-28.15,167.55,167.55,0,0,1,9.46-27.49q9.23-20.22,18.47-36.72a235,235,0,0,1,17.81-27.71q8.58-11.22,16-17.16t13.64-5.49q4.83,0,7,5.28a19.33,19.33,0,0,0-5.06,5.27,12,12,0,0,0-2,6.6,11.48,11.48,0,0,0,4.18,9.24,14.26,14.26,0,0,0,9.45,3.52,11.78,11.78,0,0,0,9.24-4c2.93-2.35,4.4-6.74,4.4-13.2q0-8.79-3.52-14.73a29.91,29.91,0,0,0-8.58-9.46,34.23,34.23,0,0,0-11-5.06,68.43,68.43,0,0,0-11.22-2,88.36,88.36,0,0,0-31.23,4.84A94.9,94.9,0,0,0,835.72,318q-14.52,12.09-27.49,31.22-12.62,18.6-22.93,44.45-2.2,4.27-4.78,8.77a298.87,298.87,0,0,1-17.59,27.05,301.89,301.89,0,0,1-21.11,25.95A193.94,193.94,0,0,1,719,477a96.43,96.43,0,0,1-22.88,13.86q-11.21,4.62-20.89,2.86a13.86,13.86,0,0,1-9.89-7.48,40.54,40.54,0,0,1-4.18-15.39,96.89,96.89,0,0,1,.44-20.46,158.86,158.86,0,0,1,4.39-22.65,142.28,142.28,0,0,0,41.35-18.25,153.62,153.62,0,0,0,31.45-26.83,123.7,123.7,0,0,0,20-30.13q7-15.39,7-28.15t-7.7-20.67q-7.7-7.92-24-7.92a89.32,89.32,0,0,0-31.23,5.72A105.34,105.34,0,0,0,673,319.1Q658.47,331,645.49,349.66T622,395.19c-.22.56-.43,1.14-.65,1.71q-6.09,11.27-13.86,23.8-7.92,12.75-16.71,25.51T573.58,469.3a169.56,169.56,0,0,1-15.39,16.93q-7,6.6-11,7-10.11.89-9-8.14t8.35-24.19q7.26-15.17,18-34.53t20.23-39.14a250,250,0,0,0,14.73-38q5.28-18.24,1.32-31T588.1,301.06a39.22,39.22,0,0,0-17.59-4.4q-6.6,0-10.56,2.2T552,303.48a62.21,62.21,0,0,1-9.45,4.62q-5.51,2.2-15.18,2.2a70.34,70.34,0,0,1-8.13-.44,11.34,11.34,0,0,1-5.94-2.2A89,89,0,0,0,515.75,291c.44-6.75.66-12,.66-15.84a27.37,27.37,0,0,0-6.82-17.37q-6.37-7.26-15.17-7.26-14.09,0-21.12,9.68t-7,23.31q0,10.56,7.26,21.11A44.36,44.36,0,0,0,490.9,320a97.41,97.41,0,0,1-4.84,14.29q-3.53,8.58-7,17.59T472,369c-2.35,5.43-4,9.45-4.83,12.09-.89,2.35-.81,4.33.22,5.94a7.82,7.82,0,0,0,3.95,3.3,8.08,8.08,0,0,0,5.28,0,6.68,6.68,0,0,0,4.18-3.52q2.64-4.83,6.6-13.86t7.91-18.47q4-9.45,7.26-17.59t4.62-11.22a72.28,72.28,0,0,0,23.09,2.42,69.41,69.41,0,0,0,20.89-4.18,232.76,232.76,0,0,1-11,27.71q-7.49,16.28-15.4,35t-14.51,38a188,188,0,0,0-5.78,20.61,6.05,6.05,0,0,0-1.51-1.47,8.31,8.31,0,0,0-6.82-1.1l-1.75.44-84,19.79q2.19-9.24,4.18-18.69t3.29-19.58q10.56-73-.66-122t-39.14-77q-27.93-27.93-70.37-36.06t-93.91.22q-42.66,7-77.63,26a278.56,278.56,0,0,0-61.57,44.64,264.46,264.46,0,0,0-44.2,55.42Q12.76,345.48,5.29,373.2t-4.39,51q3.08,23.32,18,37,9.67,8.8,20.89,9.68t19.35-2.64q8.13-3.52,11-9.46T66,447.53q-6.6-4.84-8.57-17.38t.21-29.91a227.31,227.31,0,0,1,8.58-38,313.53,313.53,0,0,1,16.49-42,307.25,307.25,0,0,1,23.76-41.35A207.29,207.29,0,0,1,137.24,243a137.85,137.85,0,0,1,46.62-29.25,127.28,127.28,0,0,1,51.24-8.14,108.51,108.51,0,0,1,48.83,14.51q23.08,13.2,39.36,39.15,18.48,29.48,22.87,72.35t-3.52,93.9q-2.2,15.41-5.27,29.69t-7.48,28.37q-28.59,7.49-56.52,15.62t-54.32,16.93q-71.7,24.18-117,48.38Q48.82,594,30.8,624.78t-3.07,61.13q7.47,16.71,31.66,25.51a102.18,102.18,0,0,0,25.07,5.28Q98.53,718,113.05,718a260.55,260.55,0,0,0,59.6-9.23A338.18,338.18,0,0,0,234,685.47a330.08,330.08,0,0,0,64.65-40.9,346.59,346.59,0,0,0,53.66-54.1,294.73,294.73,0,0,0,30.57-49.92,373.12,373.12,0,0,0,22.65-59.16l89.29-21.11,2.2-.44a11.43,11.43,0,0,0,5.4-3.15c-.21,1.51-.39,3-.54,4.47a93.64,93.64,0,0,0,0,22.21,49.73,49.73,0,0,0,5.28,17.6,29.51,29.51,0,0,0,10.33,11.21,25.69,25.69,0,0,0,15.18,3.52q10.56,0,22-7.92a134.68,134.68,0,0,0,22.65-20.23,280.07,280.07,0,0,0,21.77-27.27q5.48-7.74,10.52-15.42a103.61,103.61,0,0,0,0,15.86,70.43,70.43,0,0,0,9,29.69q7.71,13.43,25.29,20.45a57.89,57.89,0,0,0,32.11,4A96,96,0,0,0,708,503.38a151.56,151.56,0,0,0,30.13-22.65,287.81,287.81,0,0,0,27.49-30.35q3.66-4.67,7.12-9.4a103.09,103.09,0,0,0-.31,19.52,71.58,71.58,0,0,0,9,29.69q7.7,13.63,25.29,20.67,14.5,6.17,26.61,4.84a54.75,54.75,0,0,0,22.87-7.92,80.76,80.76,0,0,0,20-17.81,219,219,0,0,0,17.59-24.85q-2.21,22.42,6.16,36.95T925,515.7q10.56,0,22-7.92a134.72,134.72,0,0,0,22.66-20.23A280.23,280.23,0,0,0,991,460.8c-.49,1.9-1,3.78-1.39,5.64q-3.95,17.15-.44,27.71,4,13.19,11.66,18t15,4.62c4.84-.15,8.8-1.46,11.88-4s4-4.91,2.86-7.26q-3.52-6.58.66-19.13a241.29,241.29,0,0,1,12.09-28.81q7.92-16.26,17.82-35T1079.38,386q7.47-11.88,16-23.75t16.94-21.33A155.91,155.91,0,0,1,1128,325.25q7.26-6.15,11.66-6.59,10.11-.89,9.23,8.13T1141,351.2q-7.05,15.41-17.6,34.75t-19.79,39.36a252.11,252.11,0,0,0-14.29,38.27q-5.07,18.26-1.1,31,4,13.19,13.41,17.59a38.45,38.45,0,0,0,18.25,4,31.59,31.59,0,0,0,14.74-4q5.94-3.51,2.86-6.16-4.41-3.51,0-17.15t12.31-33q6.16-12.75,14.52-27.71t17.81-30.12q9.45-15.18,18.91-29.47t18.26-25.29a153.92,153.92,0,0,1,16-17.6q7.26-6.6,11.65-6.59,9.24,0,10.34,5.27t-2.42,15.18a187.14,187.14,0,0,1-10.55,23.31q-7,13.42-14.3,29.25t-13.41,33.42a169.35,169.35,0,0,0-8.36,35.63,70.18,70.18,0,0,0,.22,20A60.15,60.15,0,0,0,1214,499a34.64,34.64,0,0,0,10.12,12.53q6.15,4.62,15,4.18,10.56,0,22-7.92a135.07,135.07,0,0,0,22.65-20.23,281.59,281.59,0,0,0,21.77-27.27Q1316,445.34,1325,430.59q2.13-3.46,4.11-6.84c.62,26.49,8.33,51,24.58,73,13.73,18.55,33.5,29.83,55.09,37.69,2.63,1,5.32,1.73,8.78,2.84-1.54,10.14-3.13,20.08-4.57,30-7.91,54.79,20.71,96.29,74.88,108.68a19.84,19.84,0,0,1,3.11,1.29h25.41c12-4.66,24.84-7.81,35.74-14.28,26.62-15.8,42.48-39.41,43.62-71A39,39,0,0,0,1560,551.2ZM675.18,401.34q18-40.9,36.07-64.21t29.91-22.87q7.9.44,7.69,11.87t-8.57,27.05q-8.37,15.61-25.29,31.67t-43.33,25.29A90.83,90.83,0,0,1,675.18,401.34Zm-404,193.31q-34.1,38.93-82,67.07Q180.34,667,168,673.38t-26.39,12.09a247.34,247.34,0,0,1-28.81,9.68,107.74,107.74,0,0,1-27.93,4,53.75,53.75,0,0,1-24-5.28q-10.78-5.28-16.93-18-11-22.87,1.76-44.42,28.58-49.71,175.93-98.53,24.18-7.92,49.92-15.61t52.56-14.74Q305.26,555.72,271.17,594.65ZM1391.85,93.85c-3.85-13.42-3.62-26.75,3.45-39.32s17.86-14.92,28.32-4.93a110.64,110.64,0,0,1,18.63,23.76c22.12,37.68,27.59,78.7,22.26,122-.65,0-1.35.14-1.68-.13C1429.36,168.3,1403.88,135.73,1391.85,93.85Zm67,264.6c31.25,2,59.17,26.63,64.24,57.29,5.91,35.65-5.63,61.41-38.42,78,21.3-4.55,39.79-14.41,49.87-35.17,14.26-29.35,10.86-58.66-3-87.16-12.41-25.48-32.84-42.46-58.52-53.74-2.41-1.06-5.66-4.65-5.39-6.66,1.76-13.56,4.37-27,6.67-40.31,1,0,1.45-.12,1.59,0q8.58,8.16,17.11,16.36c29.11,28.08,54.92,58.51,66.38,98.38,14.1,49.06,1.53,96.66-43.77,125.73-25.88,16.61-53.58,20.39-84,15.05C1440.68,469.79,1449.75,414.05,1458.8,358.45ZM1417.6,523c-8.31-6.49-18.13-11.74-24.66-19.69-27.25-33.14-31.25-70.53-14.64-109.33,11.45-26.75,42-41.41,68.94-36.64q-13.41,81.89-26.83,163.81Z"/></g></g></svg>